<svg width="11" height="10" viewBox="0 0 11 10" fill="none" xmlns="http://www.w3.org/2000/svg">
<path d="M5.54144 0.193359C4.59069 0.193359 3.6613 0.475289 2.87078 1.0035C2.08026 1.5317 1.46413 2.28246 1.10029 3.16084C0.736458 4.03922 0.641262 5.00576 0.826744 5.93823C1.01223 6.87071 1.47005 7.72725 2.14233 8.39953C2.81461 9.07181 3.67115 9.52964 4.60363 9.71512C5.53611 9.9006 6.50265 9.8054 7.38102 9.44157C8.2594 9.07773 9.01016 8.4616 9.53837 7.67108C10.0666 6.88057 10.3485 5.95117 10.3485 5.00042C10.3472 3.72592 9.84027 2.50401 8.93906 1.6028C8.03785 0.701594 6.81594 0.194705 5.54144 0.193359ZM4.32257 6.84929H6.76031C6.5121 7.697 6.0961 8.46105 5.54144 9.06285C4.98678 8.46105 4.57078 7.697 4.32257 6.84929ZM4.15479 6.10975C4.03215 5.37528 4.03215 4.62556 4.15479 3.8911H6.92809C7.05073 4.62556 7.05073 5.37528 6.92809 6.10975H4.15479ZM1.47393 5.00042C1.4736 4.6253 1.52541 4.25196 1.62784 3.8911H3.40553C3.29522 4.62653 3.29522 5.37431 3.40553 6.10975H1.62784C1.52541 5.74888 1.4736 5.37554 1.47393 5.00042ZM6.76031 3.15155H4.32257C4.57078 2.30385 4.98678 1.5398 5.54144 0.937992C6.0961 1.5398 6.5121 2.30385 6.76031 3.15155ZM7.67735 3.8911H9.45504C9.66026 4.61641 9.66026 5.38443 9.45504 6.10975H7.67735C7.78766 5.37431 7.78766 4.62653 7.67735 3.8911ZM9.16384 3.15155H7.5262C7.3375 2.409 7.02059 1.70511 6.58975 1.07157C7.14018 1.21949 7.65356 1.48097 8.09688 1.83919C8.5402 2.19741 8.90364 2.64445 9.16384 3.15155ZM4.49313 1.07157C4.06229 1.70511 3.74538 2.409 3.55668 3.15155H1.91904C2.17924 2.64445 2.54268 2.19741 2.986 1.83919C3.42932 1.48097 3.9427 1.21949 4.49313 1.07157ZM1.91904 6.84929H3.55668C3.74538 7.59184 4.06229 8.29574 4.49313 8.92927C3.9427 8.78135 3.42932 8.51988 2.986 8.16165C2.54268 7.80343 2.17924 7.3564 1.91904 6.84929ZM6.58975 8.92927C7.02059 8.29574 7.3375 7.59184 7.5262 6.84929H9.16384C8.90364 7.3564 8.5402 7.80343 8.09688 8.16165C7.65356 8.51988 7.14018 8.78135 6.58975 8.92927Z" fill="#1E1E1E"/>
</svg>
